<svg xmlns="http://www.w3.org/2000/svg" width="25" height="29" viewBox="0 0 25 29">
  <path fill="#0059BA" fill-rule="evenodd" d="M7.23521036,10.4896184 L18.1843983,10.4896184 L18.1843983,7.87217664 C18.1843983,5.62653056 16.3477275,3.78985976 14.1020814,3.78985976 L11.3175272,3.78985976 C9.07227252,3.78985976 7.23521036,5.62653056 7.23521036,7.87217664 L7.23521036,10.4896184 Z M12.71,14.9175096 C14.2128374,14.9175096 15.4311532,16.1362168 15.4311532,17.6386628 C15.4311532,18.6945627 14.830801,19.6091801 13.952189,20.0612054 L13.952189,24.1196491 L11.467811,24.1196491 L11.467811,20.0612054 C10.589199,19.6091801 9.98884678,18.6945627 9.98884678,17.6386628 C9.98884678,16.1362168 11.2067712,14.9175096 12.71,14.9175096 L12.71,14.9175096 Z M21.8350408,10.6136808 C23.4838569,11.0441811 24.71,12.5501494 24.71,14.3292897 L24.71,24.6499472 C24.71,26.7621382 22.9825197,28.4896184 20.8703287,28.4896184 L4.54967125,28.4896184 C2.43748027,28.4896184 0.71,26.7621382 0.71,24.6499472 L0.71,14.3292897 C0.71,12.5474098 1.93692584,11.0433983 3.5853506,10.6132894 L3.5853506,7.872568 C3.5853506,3.61961646 7.06496706,0.14 11.3175272,0.14 L14.1028641,0.14 C18.3554243,0.14 21.8350408,3.61961646 21.8350408,7.872568 L21.8350408,10.6136808 Z"/>
</svg>
