<?xml version="1.0" encoding="UTF-8"?>
<svg width="172px" height="47px" viewBox="0 0 172 47" version="1.1" xmlns="http://www.w3.org/2000/svg" xmlns:xlink="http://www.w3.org/1999/xlink">
    <!-- Generator: Sketch 64 (93537) - https://sketch.com -->
    <title>Group 4</title>
    <desc>Created with Sketch.</desc>
    <defs>
        <linearGradient x1="6.10519935%" y1="76.8439699%" x2="90.7025357%" y2="20.9327868%" id="linearGradient-1">
            <stop stop-color="#E40000" offset="0%"></stop>
            <stop stop-color="#015DB5" offset="44.9551458%"></stop>
            <stop stop-color="#0D47A1" offset="100%"></stop>
        </linearGradient>
    </defs>
    <g id="Page-1" stroke="none" stroke-width="1" fill="none" fill-rule="evenodd">
        <g id="E-mail-Signature_01-Copy" transform="translate(-65.000000, -297.000000)">
            <g id="Group-4" transform="translate(65.000000, 297.000000)">
                <g id="AV_logo-New" transform="translate(0.000000, 0.000000)">
                    <g id="Group-3" transform="translate(60.288660, 0.000146)">
                        <polygon id="Shape-path" fill="#0D47A1" fill-rule="nonzero" points="3.42911689 18.2133979 0 18.2133979 7.6523002 0 11.2461965 0 19.0618557 18.2133979 15.4679593 18.2133979 13.415319 13.2474123 7.42359769 13.2474123 8.57421275 10.3166197 12.2036219 10.3166197 9.36685867 3.47618989"></polygon>
                        <path d="M21.2783505,18.2133979 L21.2783505,4.88652139 L23.8486999,4.88652139 L24.2610857,6.84265519 C25.5222516,5.54142585 26.9585403,4.88795132 28.5727762,4.88795132 C31.689678,4.88795132 33.2474227,6.52950217 33.2474227,9.81260395 L33.2474227,18.2133979 L29.9285649,18.2133979 L29.9285649,9.81260395 C29.9285649,8.33978392 29.2040653,7.60480383 27.759303,7.60480383 C26.6803212,7.60480383 25.6267604,8.04093012 24.6000328,8.91175288 L24.6000328,18.2133979 L21.2783505,18.2133979 Z" id="Shape-path" fill="#0D47A1" fill-rule="nonzero"></path>
                        <path d="M42.1078462,4.88652139 C45.9553266,4.88652139 47.8762887,6.35076189 47.8762887,9.27638307 L47.8762887,18.2133979 L45.9789392,18.2133979 L44.819139,17.0194127 C43.6940638,17.8144496 42.4523136,18.211968 41.0966671,18.211968 C37.9339551,18.211968 36.3519045,16.829233 36.3519045,14.0623332 L36.3505155,14.0623332 C36.3505155,11.414117 38.2256413,10.0900089 41.973115,10.0900089 C42.8523405,10.0900089 43.7315663,10.1758042 44.6121808,10.3431052 L44.6121808,9.33929964 C44.6121808,8.14674437 43.7787914,7.55189669 42.1078462,7.55189669 C40.6938626,7.55189669 39.1257016,7.76209525 37.3991969,8.18535229 L37.3991969,5.52140692 C39.1243126,5.09814989 40.6938626,4.88652139 42.1078462,4.88652139 Z M41.9715155,12.3745214 C40.4035653,12.3750248 39.6187905,12.924115 39.6187905,14.0251553 C39.6187905,15.209131 40.2771678,15.8011188 41.5911447,15.8011188 C42.6745508,15.8011188 43.6829518,15.4550776 44.6107918,14.7601354 L44.6107918,12.629551 C43.9255606,12.4865588 43.2017468,12.4051326 42.4361347,12.3819626 L41.9715155,12.3745214 Z" id="Combined-Shape" fill="#0D47A1" fill-rule="nonzero"></path>
                        <polygon id="Shape-path" fill="#0D47A1" fill-rule="nonzero" points="55.4123711 0 55.4123711 18.2133979 51.8659794 18.2133979 51.8659794 0.00287005943 55.4123711 0.00287005943"></polygon>
                        <path d="M57.1869993,4.88793411 L60.7589863,4.88793411 L64.1275965,14.367201 L67.4217306,4.88793411 L70.9278351,4.88793411 L65.3850964,18.4414492 C64.4025853,20.8317503 62.8314263,22.53265 60.6730526,23.5441485 L59.0446045,21.2739277 C60.5341258,20.6297331 61.6197579,19.5815041 62.2986362,18.1264155 L57.185567,4.88652139 L57.1869993,4.88793411 Z" id="Shape-path" fill="#0D47A1" fill-rule="nonzero"></path>
                        <path d="M72.7024294,2.6653753 L75.1356792,2.6653753 L75.6307196,4.83092608 L78.9072165,4.83092608 L78.9072165,7.50770766 L75.9915118,7.50770766 L75.9915118,13.664018 C75.9915118,14.9133743 76.5159193,15.5366163 77.5675307,15.5366163 L78.9072165,15.5366163 L78.9072165,18.2133979 L75.9775278,18.2133979 C73.7931966,18.2133979 72.7010309,17.0114311 72.7010309,14.6089334 L72.7010309,2.6653753 L72.7024294,2.6653753 Z" id="Shape-path" fill="#0D47A1" fill-rule="nonzero"></path>
                        <ellipse id="Oval" fill="#E40000" cx="83.3402062" cy="1.77691687" rx="1.77319588" ry="1.77691687"></ellipse>
                        <polygon id="Shape-path" fill="#0D47A1" fill-rule="nonzero" points="85.1134021 4.88652139 85.1134021 18.2133979 81.5670103 18.2133979 81.5670103 4.88652139 85.1118953 4.88652139"></polygon>
                        <path d="M98.4123711,17.8329977 C97.3003629,18.0861212 96.1479181,18.2133979 94.9507039,18.2133979 C90.16618,18.2133979 87.7731959,15.9081157 87.7731959,11.2961212 C87.7731959,7.02305465 90.16618,4.88652139 94.9507039,4.88652139 C96.1493622,4.88652139 97.3003629,5.0152282 98.410927,5.26835161 L98.410927,7.93401293 C97.2989188,7.67945943 96.2302356,7.55218271 95.2048772,7.55218271 C92.5129506,7.55218271 91.1669873,8.80063887 91.1669873,11.2961212 C91.1669873,14.1305315 92.5129506,15.5477366 95.2048772,15.5477366 C96.2302356,15.5477366 97.2989188,15.4190298 98.410927,15.1673364 L98.410927,17.8329977 L98.4123711,17.8329977 Z" id="Shape-path" fill="#0D47A1" fill-rule="nonzero"></path>
                        <path d="M101.25329,17.4641294 L101.25329,14.7252304 C102.705602,15.306124 104.382426,15.5951676 106.283762,15.5951676 C107.703801,15.5951676 108.412417,15.1405553 108.412417,14.2271212 C108.412417,13.357184 107.935329,12.9222154 106.981153,12.9222154 L104.613954,12.9222154 C101.956293,12.9222154 100.628866,11.6131002 100.628866,8.99767617 C100.628866,6.25877714 102.565282,4.88652139 106.443727,4.88652139 C108.088278,4.88652139 109.636007,5.13627755 111.088319,5.63578986 L111.088319,8.37468889 C109.636007,7.79239223 108.057407,7.50194546 106.356729,7.50194546 C104.571858,7.50194546 103.679423,7.95936407 103.679423,8.87139498 C103.679423,9.74133218 104.198607,10.179107 105.236975,10.179107 L107.353001,10.179107 C110.257625,10.179107 111.71134,11.486819 111.71134,14.1022431 C111.71134,16.8411422 109.859116,18.2133979 106.157474,18.2133979 C104.341734,18.2133979 102.705602,17.9608355 101.25329,17.4641294 Z" id="Shape-path" fill="#0D47A1" fill-rule="nonzero"></path>
                    </g>
                    <g id="Group-2" transform="translate(60.288660, 23.100065)" fill="#0D47A1" fill-rule="nonzero">
                        <g id="Group">
                            <polygon id="Shape-path" points="18.9708912 0.00142003341 11.104291 18.0244799 7.52727837 18.0244799 1.57491431e-15 0.00426009946 3.95309348 0.00426009946 9.51230843 13.8027216 15.0573848 0 18.9708912 0"></polygon>
                            <polygon id="Shape-path" points="24.3774115 4.79119164 24.3774115 18.0259 21.0520622 18.0259 21.0520622 4.79119164"></polygon>
                            <path d="M39.6977704,0.00142003341 L39.6977704,17.2306814 C37.681636,17.7589337 35.7107444,18.0259 33.7879236,18.0259 C29.5294407,18.0259 27.401613,15.7311265 27.401613,11.1429996 C27.401613,6.90846096 29.4841978,4.79119164 33.6507813,4.79119164 C34.5358442,4.79119164 35.4435287,5.00135652 36.3724211,5.42168633 L36.3724211,0.00142003341 L39.6977704,0.00142003341 Z M33.7879236,7.56309618 C31.7208907,7.56309618 30.6887886,8.72752335 30.6887886,11.0563776 C30.6887886,13.8197619 31.763306,15.2028742 33.9123412,15.2028742 C34.7832663,15.2028742 35.6032927,15.0793313 36.3724211,14.8336656 L36.3724211,8.24471206 C35.6867093,7.79030149 34.8256811,7.56309618 33.7879236,7.56309618 Z" id="Combined-Shape"></path>
                            <path d="M43.3483026,18.0244799 L43.3483026,0.00426009946 L46.6736519,0.00426009946 L46.6736519,6.47961097 C47.7099957,5.35494475 49.0347629,4.79261165 50.6507809,4.79261165 C53.7697095,4.79261165 55.330588,6.42280963 55.330588,9.6832056 L55.330588,18.0259 L52.0038249,18.0259 L52.0038249,9.6832056 C52.0038249,8.22057153 51.2799394,7.49067451 49.8335819,7.49067451 C48.7548229,7.49067451 47.7015129,7.9237846 46.6722381,8.78858474 L46.6722381,18.0259 L43.3468888,18.0259 L43.3483026,18.0244799 Z" id="Shape-path"></path>
                            <path d="M57.4131728,4.79119164 L60.9392871,4.79119164 L64.2646364,14.3196136 L67.5136383,4.79119164 L70.9775438,4.79119164 L65.505987,18.414989 C64.5360932,20.817685 62.9836982,22.5274048 60.8516289,23.5441485 L59.2455078,21.2621554 C60.7159005,20.6146203 61.7875906,19.5609557 62.45775,18.0983216 L57.4131728,4.7897716 L57.4131728,4.79119164 Z" id="Shape-path"></path>
                            <path d="M78.2913329,4.79119164 C82.2076666,4.79119164 84.1630061,6.24530551 84.1630061,9.1506932 L84.1630061,18.0259 L82.2317021,18.0259 L81.0525603,16.8401723 C79.9073506,17.6297107 78.6433787,18.0244799 77.2634719,18.0244799 C74.0455744,18.0244799 72.4352117,16.6513079 72.4352117,13.9035439 L72.432384,13.9035439 C72.432384,11.2736427 74.3410667,9.95869201 78.1527764,9.95869201 C79.0491505,9.95869201 79.9441104,10.043894 80.8390706,10.2100379 L80.8390706,9.21317464 C80.8390706,8.02886704 79.9907672,7.4381333 78.2913329,7.4381333 C76.8520447,7.4381333 75.2558206,7.64687814 73.4984187,8.06720795 L73.4984187,5.42168633 C75.2558206,5.00135652 76.8534585,4.79119164 78.2913329,4.79119164 Z M78.1527764,12.2279049 C76.5551384,12.2279049 75.7577333,12.7731976 75.7577333,13.866623 C75.7577333,15.0424105 76.4264793,15.6303041 77.7653846,15.6303041 C78.8681791,15.6303041 79.8946263,15.2866561 80.8390706,14.5965201 L80.8390706,12.4806708 C80.0049057,12.3102668 79.1085316,12.2279049 78.1527764,12.2279049 Z" id="Combined-Shape"></path>
                        </g>
                    </g>
                    <path d="M48.3499398,0.308590022 C49.2099567,0.778348078 49.4880127,1.65342663 49.5553907,1.96349546 C49.5937107,2.10077137 49.6207767,2.24516059 49.635765,2.39312739 L51.4027116,12.1599602 C51.417773,12.2524867 51.4241368,12.3443905 51.4224026,12.4348526 L51.4163397,12.5191599 L51.4163397,12.5191599 L51.4226804,12.6606786 C51.4226804,13.5193722 50.7280294,14.2154809 49.871134,14.2154809 C49.1446203,14.2154809 48.5347343,13.7150903 48.3659586,13.0394728 L48.3499398,13.0203405 L46.8973286,6.17763177 C46.8973286,6.17763177 28.9670467,37.5007124 27.5739138,39.5309108 C27.1166305,40.3304063 26.2551291,40.8692339 25.2680412,40.8692339 C24.3169815,40.8692339 23.4825078,40.3690222 23.012315,39.6168135 C22.9921986,39.5947904 22.9738969,39.5702202 22.9565769,39.5443278 C20.0529564,35.20359 12.6782513,23.9993932 12.1125525,23.2306702 C12.0733261,23.1773657 11.8925824,23.004823 11.6316968,23.0080868 C11.6094226,23.0083654 11.2569691,22.9933452 11.0597861,23.3666015 C9.42499968,26.46116 2.63545071,40.1241915 2.43300353,40.2841766 C2.43065747,40.2860306 2.42797281,40.2881646 2.42495929,40.2905626 C2.18453105,40.6413946 1.78376562,40.8692339 1.32989691,40.8692339 C0.595415127,40.8692339 -4.57091409e-14,40.2725693 -4.57091409e-14,39.5365462 C-4.57091409e-14,39.2817214 0.0713707685,39.0436012 0.195173728,38.8411637 L0.193970356,38.8281763 L9.61534512,19.5560466 C10.1066699,18.8988943 10.6111638,18.6816843 11.3041237,18.657773 C12.1162859,18.6297485 12.5634564,19.0446841 12.9685512,19.5560466 L12.9889238,19.5837626 C13.4536777,20.2160067 21.7378773,31.4841511 24.2100136,34.7367019 C24.6590024,35.3274294 25.0274885,35.3660377 25.1391548,35.3682827 L25.1718153,35.3686148 C25.1963685,35.3714292 25.7642106,35.3962993 26.110942,34.7968208 C29.1339661,29.5701873 42.6443457,4.53568725 42.914251,4.03551991 L42.9183527,4.02791877 L37.1247436,5.67362671 C36.9530821,5.73920836 36.7668092,5.77512574 36.5721649,5.77512574 C35.7152695,5.77512574 35.0206186,5.07901705 35.0206186,4.22032348 C35.0206186,3.43962964 35.5948034,2.79332528 36.3430708,2.68235226 L45.9121063,0.227958403 C46.2415038,0.0815113543 46.6061152,0.000145914864 46.9896907,0.000145914864 C47.0115503,0.000145914864 47.0333483,0.00041016895 47.0550817,0.000935663219 C47.4148974,-0.0107099085 47.8722131,0.047646362 48.3499398,0.308590022 Z" id="Combined-Shape" fill="url(#linearGradient-1)" fill-rule="nonzero"></path>
                </g>
                <ellipse id="Oval" fill="#0D47A1" cx="82.8969072" cy="24.8769821" rx="1.77319588" ry="1.77691687"></ellipse>
            </g>
        </g>
    </g>
</svg>